<svg xmlns="http://www.w3.org/2000/svg" width="3556" height="3556" viewBox="0 0 2667 2667" preserveAspectRatio="xMidYMid meet" xmlns:v="https://vecta.io/nano"><path d="M1250.7 674.7c-.1.1-57.1.3-126.6.5l-126.3.3-2.4 2.8c-2 2.3-12.8 19.3-19.5 30.5L950 751l-31 50.5-18 29.5c-63.5 103.7-72.3 118.8-72.3 122.4 0 3.9 1 5.3 13.7 19L921 1055l23 24 24.5 25.5 55 56.9 28 29.1 29 30 55.9 57.9 63.6 65.6 33 34.1 82.5 84.5c9.5 9.6 16.1 15.5 17.8 15.9 1.9.5 4 .1 6.5-1.1 3.9-2 40.3-38 68.7-67.9l22.3-23.4 18.7-19.6 21.5-22.5 43-45 22.5-23.5 21.4-22.4 21.6-22.6 22-23 40-42 21.9-22.9c2.1-2.3 12.1-12.7 22.1-23.1l22.5-23.5c2.3-2.5 12.4-13 22.4-23.4l20.6-21.6 18.1-19.1 19.9-20.9 17.5-18.5 29.4-31.7c4.7-6 5.2-5-22.9-51.9l-26-44.1c0-.4-.4-.8-1-.8-.5 0-1-.4-1-.9 0-.8-8.2-14.5-30-50.1l-39.5-64.8c-1.5-2.6-18.3-30-22-35.7L1687 702c-9.7-15.9-16.1-25-17.7-25.1-1 0-4-.3-6.8-.5-10-.8-411.1-2.5-411.8-1.7zm267.6 29.6l115.3 1c.5.5-7.2 13.5-37 62.5l-83 135.1c-6.7 10.7-12.6 19.6-13.3 19.8-.7.3-6.3-7.4-12.6-16.9-11.6-17.5-93-147.6-117.5-187.8-2.5-4.1-5.4-8.6-6.4-9.9s-1.8-2.7-1.8-3.2c0-.7 36-1.8 40-1.2.8.2 53.1.4 116.3.6zm-225.5.7c7.2.2 13.2.7 13.2 1.1s-2.7 5.2-6 10.6l-7 11.3-4.6 7.5L1277 754l-19.5 31.5-22.3 36-17.6 28.2-38.1 61.4c-4.9 8.1-8.1 12.9-8.5 12.9-.8-.1-10.1-14.4-47.7-73.5l-89.6-144.6c.5-.5 8.9-1 18.8-1.1 23.7-.4 223.2-.2 240.3.2zm-271.3 39l23.6 37.5 13.2 21 22.2 35.5 21 33.5 16.6 26.8c15.2 24.6 23.7 39.2 23.4 39.8-.5.8-270.1.7-270.9-.2-.3-.2.5-2.1 1.7-4.2 3.5-6.1 51.7-84.9 54.2-88.7l14.1-23 48.8-80c1.3-1.9 5.2-8.1 8.7-13.7 4.9-7.9 6.6-10 7.5-9 .6.6 7.8 11.8 15.9 24.7zm648.9-14.4c3.6 5.8 6.6 10.8 6.6 11 0 .3.5 1 1 1.7.6.7 7.7 12 15.7 25.2l28 45.7 15 24.7 13.3 21.8 12.5 20.5L1783 914l14.2 23.5-4.8.5c-6.1.7-262.3 1-264 .3-.9-.3-.7-1.4.9-4.1 4.5-7.9 46.7-76.6 70.3-114.7l11-18c1.4-2.4 28.4-46 32.9-53l11-17.7c4.4-7 8.2-12.5 8.7-12.2.4.2 3.6 5.2 7.2 11zm-330.1-2.9l29.6 47.3 27.6 44 11.5 18.5 19.6 31.5c12 18.8 42.4 68.8 42.4 69.9 0 1-271.5.9-272.5 0-.3-.3.6-2.3 2-4.3s2.5-3.9 2.5-4.1 3.8-6.3 8.4-13.7L1246 860l28.5-46 22.5-36c24.1-38.6 36.8-58 38-58 .5 0 2.9 3 5.3 6.7zM1165.4 985l16.6 51 17.5 54 11 34 7 21.5 13.5 41.5 12.5 38.5 51.9 160.4c3.6 11.2 6.5 20.6 6.3 20.8-.2.1-8.5-8.2-18.4-18.5l-28.5-29.3-63.8-65.9-29.5-30.5-61.1-63.1-28.5-29.6-29-30-28.4-29.3-55.5-57.4-26.5-27.5-37.2-38.4c-9.4-9.8-17-17.9-16.8-18.3.2-.3 63.6-.5 140.9-.5H1160l5.4 16.6zm313.6-15.6c0 1-4.4 15.2-24.5 78.1l-25 78.5-15.5 48.5-15 47-11 34.5-10.5 33-8 25c-19.3 60.4-32.6 100-33.6 100-.5 0-.9-.7-.9-1.5s-.4-2.3-.9-3.3c-.6-.9-6.5-18.6-13.1-39.2l-16-49-16-49-16-49-42.7-131.5-6.8-21-26.2-81-4.9-15.3c-.8-2.3-1.4-4.5-1.4-4.7 0-.8 23.7-1 155.3-1.1l132.7 1zm306.2 4.1l-30.3 31.6-42.9 44.9-42.5 44.5-21.4 22.4-21.1 22.1-22 23-22.5 23.5c-2.7 2.9-12.9 13.5-22.6 23.6l-21.3 22.3c-2 2.2-11 11.6-20 21l-21.2 22.1-21.5 22.5-21.9 23-45.2 47.1-37.2 37.8c-.2-.2 1.8-7.2 4.4-15.4l10.5-33 11.2-35.5 5.5-17.7c-.1-.2.5-2 1.2-4 .8-2.1 4.5-13.3 8.1-24.8l24.6-77.2 9.8-31 14.1-44.3 14.6-46 7.4-23c1.4-3.9 12.3-38.4 12.6-39.5.1-.6 2-6.6 4.2-13.5l6.9-21.5c1.5-5 3.1-9.2 3.5-9.5s63.5-.6 140.3-.6H1790l-4.8 5.1zM1098 1625.2c-4.6 1.3-6.9 3.4-9 8.3-2.1 4.7-2 7.7.3 12.6 4.8 9.9 21.6 11.1 27.1 1.9 2-3.5 2.9-9.2 2.1-13.1-1.7-7.4-11.5-12.1-20.5-9.7zm386.9 9.2c-.2.2-2 .6-3.9.9-27.1 4.2-48.3 20.2-55.1 41.7-2.7 8.2-3.4 22.6-1.5 29.7 5.3 20.2 18.9 32.2 46.9 41.8 5.9 2 11.5 3.8 12.5 4 7.4 1.6 40 11 45.3 13.1 24.3 9.2 34.1 28 24.9 47.6-5.1 10.8-18.1 19.8-32.2 22.2-1.8.3-4.6.8-6.3 1.2-4.1.8-23.8.9-30 .1-20.1-2.5-34.1-7.7-51.3-19.2-8.5-5.6-8.5-5.6-12.7 4.4-3.3 8-2.8 9.1 6.3 15.1 13.1 8.7 31.5 15.8 45.3 17.5 3 .4 5.6.8 5.9 1 .9.6 11.1 1.6 18.5 1.9 8.3.3 24.6-1.6 33-3.9 23.5-6.5 37.6-17.3 45.6-35.1 2.8-6.2 3.1-7.8 3.2-17.9.2-21.2-1.8-27.1-12.7-37.9-10.9-10.9-24-17-53.7-25.1-31.1-8.4-36.2-10-45.7-14.7-9.4-4.5-14.5-9.2-18.2-16.4-2.1-4.2-2.5-6.3-2.5-13.9 0-7.8.4-9.7 2.7-14 8.5-16.3 25.5-24.7 50.3-24.9 6.6 0 14.5.3 17.6.7 9.9 1.3 23 5.6 34.3 11.3 6 3 11.4 5.3 12.1 5 1.4-.5 6.5-13.8 6.5-16.9 0-1.6-1.2-2.8-4.2-4.4-11.1-5.7-23.5-10.3-32.8-12.2l-8.5-1.6c-3.4-.7-39-1.6-39.6-1.1zm-1132.6 1.8c-.8.9-1.2 16.4-1.3 47.3l-.1 169.2c.1 2.2.4 2.3 11.1 2.3 6.1 0 11-.3 11.1-.8.1-.4.2-34.2.4-75.2l.4-84.9.1-10.5 2.9 4c2.2 3 60.4 101.5 65.6 110.9.6 1.1 4.6 8 8.9 15.4l7.9 13.3 6.1-.5 6.4-.7c.1 0 .2-.5.2-1 0-.6.9-2.3 1.9-3.8 1.6-2.3 43.2-73.5 46.6-79.7.5-1.1 1.8-3.1 2.6-4.5.9-1.4 8.3-13.9 16.4-27.7 8.2-13.9 15-25.1 15.2-24.9.9.8 1.2 29.8 1.3 97.8v72.8h11.4 11.4l-.4-96.8-.3-109.7-.1-13-8.7.1-9.5.3c-.5.1-6.4 9.7-11.4 18.6-9 16.2-80.8 140-82 141.4-1 1.2-8.8-10-17.2-24.9l-17.9-31-19.2-33c-1.7-3-3.6-6.2-4.1-7s-2.2-3.8-3.8-6.5c-14.3-25.1-31.2-53.2-33.4-55.6-2-2.3-3.1-2.6-9.9-2.8-5.2-.1-7.9.2-8.6 1.1zm617.2 35.5c.1 9.3-.1 17.4-.3 18-.3 1-4.2 1.3-14.8 1.3H940v10 10h14.5c13.1 0 14.5.2 14.6 1.7l.4 44.3c.6 64 .9 69 3.9 75.5 3.2 7.1 11.4 15.7 17.9 18.8 10.1 4.9 23.7 7 34.5 5.3 8.5-1.3 22.4-7.4 24.5-10.6.6-1.1 0-3.6-2.3-8.5-1.8-3.9-3.4-7.1-3.6-7.3-.1-.2-2.3.8-4.9 2.3-10.5 5.8-25.8 6.5-35.6 1.5-4.4-2.3-9.5-9-11-14.5-.6-2.2-1.3-12.3-1.4-22.5l-.4-85.4c.2-.3 11.4-.6 24.9-.8l24.5-.4v-9.4-9.4l-24.5-.3c-13.4-.2-24.6-.6-24.8-.8s-.4-8.3-.3-17.9l.1-17.6h-10.8-10.8l.1 16.7zM616 1692.5c0 1.7 5.8 15.4 16.8 40l15.7 35 5 11 7.5 16.5 11 24.5 10.7 24c4.1 9.2 4.8 11.5 4 13.5-3.1 7.6-11.2 23-14.4 27.1-11.9 15.7-30.9 17.7-50.3 5.5l-5.5-3.5-1.7 2.2c-1 1.2-2.7 3.9-3.7 5.9-1.1 2-2.6 4.6-3.3 5.7-1.6 2.7.4 4.8 8.5 9.2 18.5 9.9 42.4 10 57.9.3 10.5-6.7 17-15.2 26.8-35.8l7-15.1c0-.1 2-4.5 4.4-9.6l22-48.9 21.2-46.8c1.9-4 3.4-7.5 3.4-7.7 0-.3 1.1-2.8 2.4-5.7l7.1-15.8 7.2-16c4.5-9.7 6.3-15.4 5-16.2-1.6-1-18.5-.4-19.6.7-.5.6-6.8 14.5-14.1 31l-16.3 36.5-6.2 14-5.9 13.2-16.1 35.2c-1.4 3.2-3 5.4-3.5 5-1-1-15.1-31.7-26.4-57.4l-9.8-22-15.4-34.5c-4.8-11-9.1-20.4-9.6-21-1.4-1.6-21.8-1.6-21.8 0zm225.5-.4c-3.2.5-7.5 1.4-9.5 2-3.7 1.2-13.8 5.9-15.5 7.2-7.4 5.6-9.5 7.6-12.7 11.9-5.1 6.8-7.2 14.1-7.2 25.8 0 8.1.4 10.3 2.6 15.1 5.9 12.8 21.4 22.5 42.1 26.5a125.83 125.83 0 0 1 4.7.9l4.8 1c1.3.2 3.2.7 4.2 1s3.1.7 4.6 1c1.6.2 5.2.9 7.9 1.5l7 1.6c6 1.2 15.4 4.9 19 7.5 5.9 4.2 7.6 7.6 7.6 15.3.1 11.4-4.4 17.7-16.6 23.7-4.8 2.3-5.7 2.4-26.5 2.3-20.8 0-21.8-.1-29.5-2.8-4.4-1.5-12.6-4.9-18.1-7.6-5.6-2.8-10.4-5-10.7-5-.9 0-6.3 9.2-7.5 13-1.1 3.1-1 3.6 1.2 5.5 2 1.7 14.6 8 21.1 10.6 10.9 4.2 27.4 7 41.8 7 6.2-.1 12.1-.2 13.2-.5 1.1-.2 4.3-.7 7-1.1l5.5-1c21.8-5.5 34.6-15.6 40-31.5 5.8-17.2-.4-34.9-15.8-44.7-7-4.5-15.1-7-42.2-12.8-35.6-7.6-44.4-12.9-45.7-27.5-.5-4.7-.1-6.4 2.1-10.7 6-11.8 20.8-17.6 43.1-16.9 16.2.6 30 4.5 40.7 11.4 2 1.3 4.2 2.1 4.8 1.7 1.6-1 8-14.1 8-16.5 0-3.4-17.8-11-33-14.1-7.1-1.4-34.8-1.9-42.5-.8zm250.6 80.8l-.1 82.1h11.4 11.5l-.4-80.9-.8-81.8c-.3-.5-5.3-1-11-1.1l-10.5-.3-.1 82zm135.9-81.2c-5 .7-14.6 3.6-20.6 6.3-23.3 10.5-41.3 33-45.6 57-.6 3.6-1.2 12.8-1.1 20.5 0 12.2.3 15.1 2.7 22.8 6.8 22.5 20.5 39.5 39.7 49 5.2 2.6 10.4 4.9 11.4 5.2 1.1.3 4.7 1.1 8 2 19.6 4.9 39.5 3.3 57.5-4.7 8.5-3.8 28-20.4 28-23.8 0-1-13.7-11-15.1-11-.5 0-2.7 2.1-5.1 4.6-11.2 11.9-29.1 18.7-46.8 17.8-10.2-.5-14.9-1.6-24-5.7-21.9-9.7-35.8-34.2-34.6-61 .5-11.6 1.8-16.5 7-27.7 5.4-11.5 18.4-23.8 29.6-28.1 11-4.2 28.9-5.8 37.8-3.5 1.2.3 3.1.8 4.2 1 7.4 1.7 17.1 7.9 25.7 16.5l6 6.1 7.7-5c4.2-2.7 7.6-5.4 7.6-5.9 0-1.1-6.2-9.4-9.5-12.6-8.4-8.4-22-15.8-34-18.4-7.6-1.7-28-2.4-36.5-1.4zm399.8 0c-2.1.5-2-8.4-1.8 127.2l.5 95c.3.2 5.2.6 11 .8 8.2.4 10.5.2 10.6-.9l.2-43 .8-42.3c.3-.3 4.2 3 8.5 7.3 11.1 11 20.9 16.2 37.4 19.7 8.3 1.7 23.6 1.7 33.1-.1 34.7-6.6 59.6-33.8 63.4-69.5 3.8-34.8-8.3-63.3-34.1-80.6-13.9-9.3-28.3-13.4-46.8-13.4-23.3 0-38 6-55.1 22.3-4 3.7-7.5 6.8-7.9 6.8-.3 0-.6-6.8-.6-15v-15l-8.7.1c-4.9.1-9.6.3-10.5.6zm95.7 18.9c14.5 3.6 29.4 14.1 36.4 25.8 3.5 5.9 7.7 15.5 8.5 19.6.2 1.4.9 4.4 1.4 6.8 3.6 15.5-4 42.2-15.7 55.3-22.2 24.9-63.6 26.1-87.1 2.6-11.7-11.6-17.9-27.1-18.4-45.7-.7-23.3 7-40.8 23.4-53.5 15.1-11.6 33.1-15.4 51.5-10.9zm148.5-18c-16.8 3.5-31.7 10.3-43.9 20-.5.4 7.9 14.3 9.1 15 .5.3 1.4.1 2.1-.4 1-.8 10-5.8 17.7-9.9 1.4-.7 3.3-1.3 4.2-1.3s1.9-.4 2.2-.8c.3-.5 2.9-1.4 5.8-2l7.8-1.8c1.4-.3 7.3-.7 13.1-.9 22.1-.8 37 6.3 43.8 20.8 3.4 7.3 4 10.1 4.7 22.4l.6 9.3-15.3.1c-50.7.3-61.6 1-71 4.9-19 7.7-28.4 20.8-29.3 40.5-.3 5.8 1.9 16.7 4.4 21.4 5.8 11.4 22.5 22.9 37.5 25.8 5.9 1.1 29.6.9 35.9-.4 11.8-2.4 22.6-8.1 32.5-17.3 2.5-2.2 4.9-3.6 5.3-3.2.5.5.9 5.2 1 10.5v9.7h10.9 10.8l-.5-38.8-1.9-78.7c-3.5-23.4-20.8-40.6-45.2-44.9-9.9-1.7-33.8-1.7-42.3 0zm66.8 101.4c-.5 16.6-1.8 19.8-11.8 29.8-10.7 10.6-21.5 15.1-38 15.8-19.2.8-34.9-6.2-40.8-18-1.8-3.5-2.4-6.4-2.4-11.9-.2-12.2 5.1-20.5 16.2-25.5 4.6-2 7.6-2.6 17.5-3 6.6-.2 12.1-.5 12.2-.6l23.8-.2h23.7l-.4 13.6zm133.7-101.9c-14.5 2.3-31 10.7-42 21.4-8.3 8.1-12.4 13.9-17 23.8-6.8 15-9.2 31.4-7.1 49.2 1.9 15.8 10.4 33.7 21.2 45 12.2 12.6 28.9 21.5 45.4 24 2.5.4 5.4.9 6.5 1.2 5.3 1.1 19.9.3 29-1.6 15-3.1 26.1-8.9 36.4-19.2 4.4-4.4 8.1-8.7 8.1-9.4 0-1.6-4.7-5.6-10.7-9.1l-4.4-2.7-3.8 4c-8.5 8.8-16.3 13.7-26.1 16.3-7.4 2-8.1 2.1-18 2.2-31.5.2-56.9-21-60.5-50.5-2.5-19.8-.2-34.2 7.4-47.2 7.1-12.2 17-20.4 31.4-25.8 7.5-2.8 9.2-3 20.7-3.1 11.1 0 13.3.3 19.7 2.6 8.9 3.3 16.2 8 23.3 15.2 3 3.1 6.1 5.6 6.8 5.6 1.7 0 10-5.6 13-8.8 2.7-2.8 3-2.4-8-13.3-11.4-11.3-21.2-16.6-35.8-19.3-8-1.6-27-1.8-35.5-.5zm168 .4c-22.8 4.5-43.1 20.7-53.3 42.7-5.7 12.2-7.6 21.6-7.6 37.3-.1 15.1.4 19.2 3.6 29.3 4.7 15.3 13.1 27.2 26.7 37.6 9.1 7 19.9 12.5 27.5 14 1.2.3 5.4 1.2 9.4 2 4 .9 10.4 1.8 14.2 2 6.1.3 9.2 0 20.5-1.9 13.5-2.2 27.5-8.3 37-16.1 9.4-7.8 9.4-8 3.4-15.8-2.8-3.6-5.4-6.6-5.8-6.6-.3 0-3.3 2.2-6.6 4.9-12.9 10.5-27.1 15.4-45 15.4-25.8 0-45.9-11.5-57-32.7-3.9-7.4-7.2-21.3-5.6-22.9.8-.8 20.8-1.2 67.4-1.3l67.3-.3c1.2-.1 1.1-21.2-.1-25.1-.3-1.1-.8-3.2-1.1-4.6-2.2-12-10.2-26.1-20.9-37-11.3-11.3-22.9-17.7-37.9-20.9-8.2-1.7-27.5-1.7-36.1 0zm36.5 20.3c5.8 2 13.2 5.5 15.8 7.5.9.7 4.6 4.1 8.2 7.8 7.7 7.4 13.6 18.4 14.6 26.5.2 2.7.7 5.7 1 6.7.5 1.7-1.9 1.8-54.9 1.6l-58.1-.6c-1.6-.3-2.6-1.2-2.6-2.3 0-3.3 5.3-18.5 8-22.8 7.9-12.7 23.7-23.8 37-25.8 1.9-.3 3.7-.8 4-1.1 1.2-1.2 21.8.7 27 2.5z"/></svg>