<?xml version="1.0" standalone="no"?>
<!DOCTYPE svg PUBLIC "-//W3C//DTD SVG 20010904//EN"
 "http://www.w3.org/TR/2001/REC-SVG-20010904/DTD/svg10.dtd">
<svg version="1.0" xmlns="http://www.w3.org/2000/svg"
 width="2667.000000pt" height="2667.000000pt" viewBox="0 0 2667.000000 2667.000000"
 preserveAspectRatio="xMidYMid meet">
<metadata>
Created by potrace 1.14, written by Peter Selinger 2001-2017
</metadata>
<g transform="translate(0.000000,2667.000000) scale(0.100000,-0.100000)"
fill="#000000" stroke="none">
<path d="M12507 19923 c-1 -1 -571 -3 -1266 -5 l-1263 -3 -24 -28 c-20 -23
-128 -193 -195 -305 -9 -15 -126 -205 -259 -422 -133 -217 -273 -444 -310
-505 -37 -60 -118 -193 -180 -295 -635 -1037 -723 -1188 -723 -1224 0 -39 10
-53 137 -190 171 -184 426 -452 786 -826 25 -26 128 -134 230 -240 102 -106
212 -221 245 -255 318 -329 500 -517 550 -569 33 -34 159 -165 280 -291 121
-125 252 -260 290 -300 75 -77 445 -461 559 -579 106 -110 324 -335 636 -656
157 -162 305 -315 330 -341 85 -88 675 -693 825 -845 95 -96 161 -155 178
-159 19 -5 40 -1 65 11 39 20 403 380 687 679 94 98 194 204 223 234 30 31
114 119 187 196 73 77 170 178 215 225 87 91 339 355 430 450 30 32 132 138
225 235 94 98 190 198 214 224 24 25 121 127 216 226 95 99 193 203 220 230
57 61 163 171 400 420 99 103 197 206 219 229 21 23 121 127 221 231 101 105
202 210 225 235 23 25 124 130 224 234 99 104 192 202 206 216 14 15 95 101
181 191 86 90 176 184 199 209 23 25 102 108 175 185 213 226 273 290 294 317
47 60 52 50 -229 519 -143 238 -260 437 -260 441 0 4 -4 8 -10 8 -5 0 -10 4
-10 9 0 8 -82 145 -300 501 -206 335 -370 605 -395 648 -15 26 -183 300 -220
357 -17 28 -46 75 -65 105 -97 159 -161 250 -177 251 -10 0 -40 3 -68 5 -100
8 -4111 25 -4118 17z m2676 -296 c631 -2 1150 -7 1153 -10 5 -5 -72 -135 -370
-625 -116 -190 -711 -1159 -830 -1351 -67 -107 -126 -196 -133 -198 -7 -3 -63
74 -126 169 -116 175 -930 1476 -1175 1878 -25 41 -54 86 -64 99 -10 13 -18
27 -18 32 0 7 360 18 400 12 8 -2 531 -4 1163 -6z m-2255 -7 c72 -2 132 -7
132 -11 0 -4 -27 -52 -60 -106 -33 -54 -64 -105 -70 -113 -5 -8 -25 -42 -46
-75 -20 -33 -72 -116 -114 -185 -43 -69 -131 -210 -195 -315 -65 -104 -165
-266 -223 -360 -100 -163 -123 -199 -176 -282 -24 -39 -363 -584 -381 -614
-49 -81 -81 -129 -85 -129 -8 1 -101 144 -477 735 -622 978 -906 1436 -896
1446 5 5 89 10 188 11 237 4 2232 2 2403 -2z m-2713 -390 c81 -129 187 -298
236 -375 48 -77 108 -171 132 -210 24 -38 124 -198 222 -355 98 -157 192 -307
210 -335 28 -44 61 -97 166 -268 152 -246 237 -392 234 -398 -5 -8 -2701 -7
-2709 2 -3 2 5 21 17 42 35 61 517 849 542 887 12 19 76 123 141 230 146 242
458 753 488 800 13 19 52 81 87 137 49 79 66 100 75 90 6 -6 78 -118 159 -247z
m6489 144 c36 -58 66 -108 66 -110 0 -3 5 -10 10 -17 6 -7 77 -120 157 -252
81 -132 206 -337 280 -457 73 -119 140 -230 150 -247 10 -16 70 -114 133 -218
63 -103 120 -195 125 -205 21 -35 67 -111 205 -338 l142 -235 -48 -5 c-61 -7
-2623 -10 -2640 -3 -9 3 -7 14 9 41 45 79 467 766 703 1147 54 88 104 169 110
180 14 24 284 460 329 530 17 28 67 107 110 177 44 70 82 125 87 122 4 -2 36
-52 72 -110z m-3301 29 c24 -38 158 -250 296 -473 139 -223 263 -421 276 -440
12 -19 64 -102 115 -185 154 -249 172 -279 196 -315 120 -188 424 -688 424
-699 0 -10 -2715 -9 -2725 0 -3 3 6 23 20 43 14 20 25 39 25 41 0 2 38 63 84
137 46 73 202 324 346 558 144 234 272 441 285 460 12 19 114 181 225 360 241
386 368 580 380 580 5 0 29 -30 53 -67z m-1749 -2583 c29 -91 104 -320 166
-510 61 -190 140 -433 175 -540 35 -107 85 -260 110 -340 26 -80 58 -176 70
-215 13 -38 73 -225 135 -415 61 -190 117 -363 125 -385 21 -62 295 -908 519
-1604 36 -112 65 -206 63 -208 -2 -1 -85 82 -184 185 -100 103 -228 235 -285
293 -120 124 -543 560 -638 659 -36 37 -168 174 -295 305 -336 347 -368 380
-611 631 -122 126 -250 259 -285 296 -35 36 -166 171 -290 300 -125 128 -253
260 -284 293 -53 55 -397 411 -555 574 -36 37 -155 161 -265 275 -110 114
-277 287 -372 384 -94 98 -170 179 -168 183 2 3 636 5 1409 5 l1406 0 54 -166z
m3136 156 c0 -10 -44 -152 -245 -781 -161 -508 -200 -630 -250 -785 -30 -91
-99 -309 -155 -485 -56 -176 -123 -387 -150 -470 -26 -82 -76 -238 -110 -345
-34 -107 -81 -256 -105 -330 -24 -74 -60 -187 -80 -250 -193 -604 -326 -1000
-336 -1000 -5 0 -9 7 -9 15 0 8 -4 23 -9 33 -6 9 -65 186 -131 392 -67 206
-139 427 -160 490 -21 63 -93 284 -160 490 -67 206 -139 427 -160 490 -66 201
-334 1028 -427 1315 -25 77 -55 172 -68 210 -29 86 -214 660 -262 810 -19 61
-41 129 -49 153 -8 23 -14 45 -14 47 0 8 237 10 1553 11 944 0 1327 -3 1327
-10z m3062 -41 c-44 -45 -163 -169 -303 -316 -314 -329 -399 -418 -429 -449
-35 -36 -335 -350 -425 -445 -26 -27 -122 -128 -214 -224 -91 -95 -186 -195
-211 -221 -25 -26 -124 -129 -220 -230 -96 -101 -197 -206 -225 -235 -27 -29
-129 -135 -226 -236 -97 -101 -193 -202 -213 -223 -20 -22 -110 -116 -200
-210 -90 -94 -185 -193 -212 -221 -26 -27 -122 -129 -215 -225 -92 -96 -190
-200 -219 -230 -54 -57 -125 -132 -452 -471 -336 -349 -368 -382 -372 -378 -2
2 18 72 44 154 27 83 74 231 105 330 31 99 82 259 112 355 31 96 55 176 55
177 -1 2 5 20 12 40 8 21 45 133 81 248 93 294 200 628 246 772 21 67 66 206
98 310 33 103 96 303 141 443 45 140 110 347 146 460 36 113 69 216 74 230 14
39 123 384 126 395 1 6 20 66 42 135 22 69 53 166 69 215 15 50 31 92 35 95 4
3 635 6 1403 6 l1395 0 -48 -51z"/>
<path d="M10980 10418 c-46 -13 -69 -34 -90 -83 -21 -47 -20 -77 3 -126 48
-99 216 -111 271 -19 20 35 29 92 21 131 -17 74 -115 121 -205 97z"/>
<path d="M14849 10326 c-2 -2 -20 -6 -39 -9 -271 -42 -483 -202 -551 -417 -27
-82 -34 -226 -15 -297 53 -202 189 -322 469 -418 59 -20 115 -38 125 -40 74
-16 400 -110 453 -131 243 -92 341 -280 249 -476 -51 -108 -181 -198 -322
-222 -18 -3 -46 -8 -63 -12 -41 -8 -238 -9 -300 -1 -201 25 -341 77 -513 192
-85 56 -85 56 -127 -44 -33 -80 -28 -91 63 -151 131 -87 315 -158 453 -175 30
-4 56 -8 59 -10 9 -6 111 -16 185 -19 83 -3 246 16 330 39 235 65 376 173 456
351 28 62 31 78 32 179 2 212 -18 271 -127 379 -109 109 -240 170 -537 251
-311 84 -362 100 -457 147 -94 45 -145 92 -182 164 -21 42 -25 63 -25 139 0
78 4 97 27 140 85 163 255 247 503 249 66 0 145 -3 176 -7 99 -13 230 -56 343
-113 60 -30 114 -53 121 -50 14 5 65 138 65 169 0 16 -12 28 -42 44 -111 57
-235 103 -328 122 -30 6 -68 13 -85 16 -34 7 -390 16 -396 11z"/>
<path d="M3523 10308 c-8 -9 -12 -164 -13 -473 -2 -432 -2 -1643 -1 -1692 1
-22 4 -23 111 -23 61 0 110 3 111 8 1 4 2 342 4 752 1 410 3 792 4 849 l1 105
29 -40 c22 -30 604 -1015 656 -1109 6 -11 46 -80 89 -154 l79 -133 61 5 c34 4
62 6 64 7 1 0 2 5 2 10 0 6 9 23 19 38 16 23 432 735 466 797 5 11 18 31 26
45 9 14 83 139 164 277 82 139 150 251 152 249 9 -8 12 -298 13 -978 l0 -728
114 0 114 0 -4 968 c-1 532 -3 1026 -3 1097 l-1 130 -87 -1 c-49 -1 -91 -2
-95 -3 -5 -1 -64 -97 -114 -186 -90 -162 -808 -1400 -820 -1414 -10 -12 -88
100 -172 249 -11 19 -91 159 -179 310 -88 151 -174 300 -192 330 -17 30 -36
62 -41 70 -5 8 -22 38 -38 65 -143 251 -312 532 -334 556 -20 23 -31 26 -99
28 -52 1 -79 -2 -86 -11z"/>
<path d="M9695 9953 c1 -93 -1 -174 -3 -180 -3 -10 -42 -13 -148 -13 l-144 0
0 -100 0 -100 145 0 c131 0 145 -2 146 -17 0 -10 2 -209 4 -443 6 -640 9 -690
39 -755 32 -71 114 -157 179 -188 101 -49 237 -70 345 -53 85 13 224 74 245
106 6 11 0 36 -23 85 -18 39 -34 71 -36 73 -1 2 -23 -8 -49 -23 -105 -58 -258
-65 -356 -15 -44 23 -95 90 -110 145 -6 22 -13 123 -14 225 -6 363 -9 850 -4
854 2 3 114 6 249 8 l245 4 0 94 0 94 -245 3 c-134 2 -246 6 -248 8 -2 2 -4
83 -3 179 l1 176 -108 0 -108 0 1 -167z"/>
<path d="M6160 9745 c0 -17 58 -154 168 -400 112 -250 140 -312 157 -350 7
-16 30 -66 50 -110 20 -44 54 -118 75 -165 39 -88 79 -176 110 -245 25 -57 51
-115 107 -240 41 -92 48 -115 40 -135 -31 -76 -112 -230 -144 -271 -119 -157
-309 -177 -503 -55 l-55 35 -17 -22 c-10 -12 -27 -39 -37 -59 -11 -20 -26 -46
-33 -57 -16 -27 4 -48 85 -92 185 -99 424 -100 579 -3 105 67 170 152 268 358
38 81 70 149 70 151 0 1 20 45 44 96 24 52 123 272 220 489 98 217 193 428
212 468 19 40 34 75 34 77 0 3 11 28 24 57 13 29 45 100 71 158 26 58 58 130
72 160 45 97 63 154 50 162 -16 10 -185 4 -196 -7 -5 -6 -68 -145 -141 -310
-73 -165 -146 -329 -163 -365 -16 -36 -44 -99 -62 -140 -18 -41 -44 -101 -59
-132 -76 -168 -129 -284 -161 -352 -14 -32 -30 -54 -35 -50 -10 10 -151 317
-264 574 -43 96 -87 195 -98 220 -45 99 -69 153 -154 345 -48 110 -91 204 -96
210 -14 16 -218 16 -218 0z"/>
<path d="M8415 9749 c-32 -5 -75 -14 -95 -20 -37 -12 -138 -59 -155 -72 -74
-56 -95 -76 -127 -119 -51 -68 -72 -141 -72 -258 0 -81 4 -103 26 -151 59
-128 214 -225 421 -265 12 -2 33 -6 47 -9 14 -3 35 -7 48 -10 13 -2 32 -7 42
-10 10 -3 31 -7 46 -10 16 -2 52 -9 79 -15 28 -6 59 -13 70 -16 60 -12 154
-49 190 -75 59 -42 76 -76 76 -153 1 -114 -44 -177 -166 -237 -48 -23 -57 -24
-265 -23 -208 0 -218 1 -295 28 -44 15 -126 49 -181 76 -56 28 -104 50 -107
50 -9 0 -63 -92 -75 -130 -11 -31 -10 -36 12 -55 20 -17 146 -80 211 -106 109
-42 274 -70 418 -70 62 1 121 2 132 5 11 2 43 7 70 11 28 5 52 9 55 10 218 55
346 156 400 315 58 172 -4 349 -158 447 -70 45 -151 70 -422 128 -356 76 -444
129 -457 275 -5 47 -1 64 21 107 60 118 208 176 431 169 162 -6 300 -45 407
-114 20 -13 42 -21 48 -17 16 10 80 141 80 165 0 34 -178 110 -330 141 -71 14
-348 19 -425 8z"/>
<path d="M10921 8941 l-1 -821 114 0 115 0 -4 809 c-2 446 -5 813 -8 818 -3 5
-53 10 -110 11 l-105 3 -1 -820z"/>
<path d="M12280 9753 c-50 -7 -146 -36 -206 -63 -233 -105 -413 -330 -456
-570 -6 -36 -12 -128 -11 -205 0 -122 3 -151 27 -228 68 -225 205 -395 397
-490 52 -26 104 -49 114 -52 11 -3 47 -11 80 -20 196 -49 395 -33 575 47 85
38 280 204 280 238 0 10 -137 110 -151 110 -5 0 -27 -21 -51 -46 -112 -119
-291 -187 -468 -178 -102 5 -149 16 -240 57 -219 97 -358 342 -346 610 5 116
18 165 70 277 54 115 184 238 296 281 110 42 289 58 378 35 12 -3 31 -8 42
-10 74 -17 171 -79 257 -165 l60 -61 77 50 c42 27 76 54 76 59 0 11 -62 94
-95 126 -84 84 -220 158 -340 184 -76 17 -280 24 -365 14z"/>
<path d="M16278 9753 c-21 -5 -20 84 -18 -1272 0 -520 3 -947 5 -950 3 -2 52
-6 110 -8 82 -4 105 -2 106 9 0 7 1 201 2 430 2 229 5 420 8 423 3 3 42 -30
85 -73 111 -110 209 -162 374 -197 83 -17 236 -17 331 1 347 66 596 338 634
695 38 348 -83 633 -341 806 -139 93 -283 134 -468 134 -233 0 -380 -60 -551
-223 -40 -37 -75 -68 -79 -68 -3 0 -6 68 -6 150 l0 150 -87 -1 c-49 -1 -96 -3
-105 -6z m957 -189 c145 -36 294 -141 364 -258 35 -59 77 -155 85 -196 2 -14
9 -44 14 -68 36 -155 -40 -422 -157 -553 -222 -249 -636 -261 -871 -26 -117
116 -179 271 -184 457 -7 233 70 408 234 535 151 116 331 154 515 109z"/>
<path d="M18720 9744 c-168 -35 -317 -103 -439 -200 -5 -4 79 -143 91 -150 5
-3 14 -1 21 4 10 8 100 58 177 99 14 7 33 13 42 13 9 0 19 4 22 8 3 5 29 14
58 20 29 7 64 15 78 18 14 3 73 7 131 9 221 8 370 -63 438 -208 34 -73 40
-101 47 -224 l6 -93 -153 -1 c-507 -3 -616 -10 -710 -49 -190 -77 -284 -208
-293 -405 -3 -58 19 -167 44 -214 58 -114 225 -229 375 -258 59 -11 296 -9
359 4 118 24 226 81 325 173 25 22 49 36 53 32 5 -5 9 -52 10 -105 l0 -97 109
0 108 0 -5 388 c-5 470 -11 734 -19 787 -35 234 -208 406 -452 449 -99 17
-338 17 -423 0z m668 -1014 c-5 -166 -18 -198 -118 -298 -107 -106 -215 -151
-380 -158 -192 -8 -349 62 -408 180 -18 35 -24 64 -24 119 -2 122 51 205 162
255 46 20 76 26 175 30 66 2 121 5 122 6 1 0 108 1 238 2 l237 0 -4 -136z"/>
<path d="M20725 9749 c-145 -23 -310 -107 -420 -214 -83 -81 -124 -139 -170
-238 -68 -150 -92 -314 -71 -492 19 -158 104 -337 212 -450 122 -126 289 -215
454 -240 25 -4 54 -9 65 -12 53 -11 199 -3 290 16 150 31 261 89 364 192 44
44 81 87 81 94 0 16 -47 56 -107 91 l-44 27 -38 -40 c-85 -88 -163 -137 -261
-163 -74 -20 -81 -21 -180 -22 -315 -2 -569 210 -605 505 -25 198 -2 342 74
472 71 122 170 204 314 258 75 28 92 30 207 31 111 0 133 -3 197 -26 89 -33
162 -80 233 -152 30 -31 61 -56 68 -56 17 0 100 56 130 88 27 28 30 24 -80
133 -114 113 -212 166 -358 193 -80 16 -270 18 -355 5z"/>
<path d="M22405 9745 c-228 -45 -431 -207 -533 -427 -57 -122 -76 -216 -76
-373 -1 -151 4 -192 36 -293 47 -153 131 -272 267 -376 91 -70 199 -125 275
-140 12 -3 54 -12 94 -20 40 -9 104 -18 142 -20 61 -3 92 0 205 19 135 22 275
83 370 161 94 78 94 80 34 158 -28 36 -54 66 -58 66 -3 0 -33 -22 -66 -49
-129 -105 -271 -154 -450 -154 -258 0 -459 115 -570 327 -39 74 -72 213 -56
229 8 8 208 12 674 13 364 1 667 3 673 3 12 1 11 212 -1 251 -3 11 -8 32 -11
46 -22 120 -102 261 -209 370 -113 113 -229 177 -379 209 -82 17 -275 17 -361
0z m365 -203 c58 -20 132 -55 158 -75 9 -7 46 -41 82 -78 77 -74 136 -184 146
-265 2 -27 7 -57 10 -67 5 -17 -19 -18 -549 -16 -306 1 -567 4 -581 6 -16 3
-26 12 -26 23 0 33 53 185 80 228 79 127 237 238 370 258 19 3 37 8 40 11 12
12 218 -7 270 -25z"/>
</g>
</svg>
