<?xml version="1.0" encoding="UTF-8"?>
<svg xmlns="http://www.w3.org/2000/svg" xmlns:xlink="http://www.w3.org/1999/xlink" width="79pt" height="58pt" viewBox="0 0 79 58" version="1.1">
<g id="surface1">
<path style=" stroke:none;fill-rule:nonzero;fill:rgb(0%,0%,0%);fill-opacity:1;" d="M 34.511719 9.410156 L 29.539062 9.429688 L 29.460938 9.527344 C 29.363281 9.644531 24.710938 17.300781 24.597656 17.523438 C 24.535156 17.644531 24.527344 17.703125 24.554688 17.808594 C 24.582031 17.90625 26.410156 19.832031 31.929688 25.574219 C 35.960938 29.773438 39.320312 33.25 39.398438 33.292969 C 39.679688 33.449219 39.53125 33.589844 42.941406 29.996094 C 44.664062 28.183594 47.9375 24.738281 50.21875 22.335938 C 52.503906 19.941406 54.394531 17.929688 54.421875 17.878906 C 54.453125 17.824219 54.46875 17.730469 54.460938 17.671875 C 54.445312 17.570312 49.664062 9.660156 49.523438 9.507812 C 49.453125 9.429688 49.386719 9.429688 44.464844 9.410156 C 41.722656 9.398438 37.246094 9.398438 34.511719 9.410156 Z M 48.417969 10.304688 C 48.429688 10.316406 44.636719 16.546875 44.457031 16.804688 C 44.417969 16.863281 44.121094 16.410156 42.371094 13.582031 C 41.25 11.773438 40.328125 10.285156 40.328125 10.277344 C 40.328125 10.257812 48.398438 10.285156 48.417969 10.304688 Z M 38.699219 10.332031 C 38.675781 10.394531 34.722656 16.804688 34.6875 16.84375 C 34.664062 16.867188 30.628906 10.453125 30.582031 10.320312 C 30.574219 10.300781 32.21875 10.285156 34.640625 10.285156 C 37.886719 10.285156 38.714844 10.296875 38.699219 10.332031 Z M 31.835938 13.988281 C 32.949219 15.773438 33.851562 17.242188 33.84375 17.253906 C 33.832031 17.261719 32.007812 17.265625 29.789062 17.261719 L 25.753906 17.25 L 27.574219 14.253906 C 29.882812 10.453125 29.746094 10.667969 29.78125 10.707031 C 29.796875 10.722656 30.722656 12.199219 31.835938 13.988281 Z M 41.609375 14.011719 C 42.710938 15.785156 43.605469 17.246094 43.597656 17.253906 C 43.589844 17.261719 41.753906 17.265625 39.527344 17.261719 L 35.472656 17.25 L 37.492188 13.96875 C 39.050781 11.441406 39.527344 10.691406 39.5625 10.730469 C 39.585938 10.757812 40.507812 12.234375 41.609375 14.011719 Z M 51.25 13.941406 C 52.335938 15.730469 53.234375 17.214844 53.238281 17.234375 C 53.246094 17.253906 51.6875 17.269531 49.242188 17.269531 C 47.03125 17.269531 45.226562 17.257812 45.226562 17.246094 C 45.226562 17.207031 49.234375 10.679688 49.257812 10.679688 C 49.269531 10.683594 50.164062 12.148438 51.25 13.941406 Z M 34.714844 19.246094 C 34.914062 19.851562 35.867188 22.792969 36.828125 25.789062 C 37.796875 28.777344 38.582031 31.226562 38.578125 31.234375 C 38.570312 31.238281 28.929688 21.222656 26.570312 18.757812 L 25.984375 18.144531 L 34.359375 18.144531 Z M 43.03125 20.675781 C 42.589844 22.066406 41.636719 25.070312 40.914062 27.34375 C 40.191406 29.625 39.589844 31.472656 39.574219 31.453125 C 39.546875 31.429688 35.273438 18.21875 35.273438 18.167969 C 35.273438 18.15625 37.199219 18.144531 39.550781 18.144531 L 43.832031 18.144531 Z M 52.828125 18.351562 C 52.714844 18.464844 50.320312 20.992188 47.496094 23.960938 C 41.476562 30.296875 40.605469 31.210938 40.605469 31.175781 C 40.605469 31.160156 41.535156 28.222656 42.667969 24.644531 L 44.726562 18.144531 L 53.023438 18.144531 Z M 52.828125 18.351562 "/>
<path style=" stroke:none;fill-rule:nonzero;fill:rgb(0%,0%,0%);fill-opacity:1;" d="M 32.425781 37.738281 C 32.289062 37.8125 32.179688 38.042969 32.210938 38.195312 C 32.300781 38.589844 32.816406 38.714844 33.0625 38.40625 C 33.152344 38.289062 33.167969 37.976562 33.089844 37.878906 C 32.9375 37.683594 32.640625 37.625 32.425781 37.738281 Z M 32.425781 37.738281 "/>
<path style=" stroke:none;fill-rule:nonzero;fill:rgb(0%,0%,0%);fill-opacity:1;" d="M 43.804688 38.011719 C 42.886719 38.207031 42.320312 38.710938 42.183594 39.457031 C 42.085938 39.953125 42.21875 40.433594 42.53125 40.78125 C 42.859375 41.132812 43.351562 41.351562 44.515625 41.648438 C 45.28125 41.84375 45.570312 41.964844 45.828125 42.199219 C 46.390625 42.707031 46.160156 43.582031 45.390625 43.878906 C 45.058594 44 44.707031 44.042969 44.21875 44.019531 C 43.550781 43.984375 43.042969 43.816406 42.527344 43.460938 C 42.378906 43.355469 42.253906 43.277344 42.246094 43.285156 C 42.203125 43.332031 42.027344 43.722656 42.027344 43.769531 C 42.027344 43.839844 42.332031 44.066406 42.640625 44.222656 C 42.957031 44.382812 43.34375 44.496094 43.824219 44.566406 C 44.324219 44.644531 44.558594 44.644531 45.019531 44.566406 C 45.851562 44.433594 46.382812 44.09375 46.660156 43.519531 C 46.78125 43.273438 46.789062 43.230469 46.789062 42.820312 C 46.789062 42.277344 46.707031 42.074219 46.375 41.757812 C 46.03125 41.421875 45.648438 41.265625 44.464844 40.953125 C 43.78125 40.777344 43.453125 40.652344 43.230469 40.492188 C 42.613281 40.046875 42.722656 39.140625 43.4375 38.761719 C 44.128906 38.394531 45.269531 38.484375 46.070312 38.964844 C 46.226562 39.0625 46.300781 39.089844 46.324219 39.058594 C 46.402344 38.953125 46.535156 38.554688 46.511719 38.507812 C 46.460938 38.429688 45.851562 38.164062 45.503906 38.078125 C 45.078125 37.964844 44.191406 37.933594 43.804688 38.011719 Z M 43.804688 38.011719 "/>
<path style=" stroke:none;fill-rule:nonzero;fill:rgb(0%,0%,0%);fill-opacity:1;" d="M 10.417969 38.023438 C 10.398438 38.035156 10.386719 39.515625 10.386719 41.300781 L 10.386719 44.546875 L 11.058594 44.546875 L 11.058594 41.980469 C 11.058594 40.257812 11.070312 39.421875 11.097656 39.449219 C 11.125 39.472656 11.417969 39.96875 11.761719 40.5625 C 12.101562 41.148438 12.660156 42.097656 12.996094 42.675781 L 13.605469 43.71875 L 13.777344 43.707031 L 13.953125 43.695312 L 15.167969 41.597656 C 15.835938 40.441406 16.40625 39.476562 16.429688 39.453125 C 16.460938 39.421875 16.472656 40.101562 16.472656 41.980469 L 16.472656 44.546875 L 17.144531 44.546875 L 17.136719 41.28125 L 17.125 38.015625 L 16.570312 38.015625 L 16.316406 38.453125 C 16.179688 38.691406 15.570312 39.757812 14.960938 40.816406 C 14.359375 41.875 13.835938 42.761719 13.8125 42.789062 C 13.777344 42.824219 13.667969 42.667969 13.324219 42.074219 C 13.082031 41.652344 12.46875 40.597656 11.964844 39.722656 C 11.464844 38.851562 11.019531 38.105469 10.988281 38.066406 C 10.945312 38.011719 10.871094 37.996094 10.683594 37.996094 C 10.550781 37.996094 10.429688 38.007812 10.417969 38.023438 Z M 10.417969 38.023438 "/>
<path style=" stroke:none;fill-rule:nonzero;fill:rgb(0%,0%,0%);fill-opacity:1;" d="M 28.714844 39.128906 L 28.714844 39.664062 L 27.847656 39.664062 L 27.847656 40.261719 L 28.710938 40.261719 L 28.722656 41.976562 C 28.734375 43.585938 28.738281 43.703125 28.816406 43.851562 C 29.027344 44.289062 29.328125 44.503906 29.855469 44.597656 C 30.101562 44.640625 30.191406 44.636719 30.457031 44.578125 C 30.792969 44.507812 31.125 44.34375 31.125 44.246094 C 31.125 44.214844 31.082031 44.097656 31.027344 43.992188 L 30.929688 43.796875 L 30.75 43.902344 C 30.425781 44.078125 29.898438 44.066406 29.648438 43.871094 C 29.589844 43.824219 29.503906 43.710938 29.457031 43.625 C 29.371094 43.460938 29.367188 43.421875 29.355469 41.859375 L 29.339844 40.261719 L 30.085938 40.253906 L 30.828125 40.242188 L 30.828125 39.683594 L 30.089844 39.671875 L 29.347656 39.664062 L 29.347656 38.59375 L 28.714844 38.59375 Z M 28.714844 39.128906 "/>
<path style=" stroke:none;fill-rule:nonzero;fill:rgb(0%,0%,0%);fill-opacity:1;" d="M 18.238281 39.691406 C 18.230469 39.707031 18.351562 40.019531 18.511719 40.378906 C 18.675781 40.742188 18.910156 41.265625 19.035156 41.550781 C 19.160156 41.832031 19.515625 42.621094 19.820312 43.300781 L 20.371094 44.539062 L 20.234375 44.847656 C 20.078125 45.210938 19.921875 45.445312 19.734375 45.613281 C 19.410156 45.898438 18.871094 45.886719 18.433594 45.585938 L 18.253906 45.460938 L 18.105469 45.707031 L 17.960938 45.949219 L 18.074219 46.046875 C 18.398438 46.308594 18.949219 46.441406 19.394531 46.371094 C 19.960938 46.285156 20.328125 45.988281 20.628906 45.386719 C 20.730469 45.199219 21.261719 44.015625 21.824219 42.761719 C 22.378906 41.507812 22.914062 40.308594 23.007812 40.101562 C 23.105469 39.894531 23.167969 39.707031 23.152344 39.691406 C 23.136719 39.675781 22.988281 39.664062 22.835938 39.671875 L 22.546875 39.683594 L 21.644531 41.722656 C 21.152344 42.839844 20.734375 43.757812 20.71875 43.757812 C 20.703125 43.757812 20.285156 42.839844 19.789062 41.722656 L 18.890625 39.683594 L 18.574219 39.671875 C 18.398438 39.667969 18.25 39.675781 18.238281 39.691406 Z M 18.238281 39.691406 "/>
<path style=" stroke:none;fill-rule:nonzero;fill:rgb(0%,0%,0%);fill-opacity:1;" d="M 24.757812 39.726562 C 24.285156 39.84375 23.875 40.132812 23.703125 40.484375 C 23.585938 40.710938 23.554688 41.121094 23.621094 41.414062 C 23.660156 41.570312 23.71875 41.675781 23.855469 41.820312 C 24.128906 42.117188 24.425781 42.242188 25.261719 42.402344 C 26.171875 42.578125 26.417969 42.667969 26.597656 42.878906 C 26.683594 42.984375 26.703125 43.046875 26.703125 43.222656 C 26.703125 43.566406 26.566406 43.753906 26.207031 43.921875 C 26.03125 44.003906 25.957031 44.011719 25.417969 44.011719 C 24.859375 44.007812 24.804688 44 24.464844 43.886719 C 24.269531 43.816406 24.015625 43.707031 23.902344 43.636719 C 23.664062 43.496094 23.675781 43.492188 23.507812 43.816406 C 23.417969 43.980469 23.414062 43.996094 23.480469 44.066406 C 23.566406 44.167969 24.097656 44.414062 24.390625 44.488281 C 25.453125 44.765625 26.582031 44.574219 27.070312 44.03125 C 27.5 43.546875 27.480469 42.804688 27.019531 42.390625 C 26.757812 42.152344 26.582031 42.09375 25.5 41.863281 C 24.59375 41.671875 24.328125 41.53125 24.25 41.171875 C 24.101562 40.53125 24.820312 40.121094 25.851562 40.257812 C 26.210938 40.308594 26.574219 40.429688 26.777344 40.574219 C 26.839844 40.621094 26.902344 40.65625 26.914062 40.65625 C 26.945312 40.65625 27.175781 40.191406 27.175781 40.128906 C 27.175781 40.050781 26.683594 39.835938 26.296875 39.742188 C 25.902344 39.648438 25.109375 39.640625 24.757812 39.726562 Z M 24.757812 39.726562 "/>
<path style=" stroke:none;fill-rule:nonzero;fill:rgb(0%,0%,0%);fill-opacity:1;" d="M 32.351562 42.105469 L 32.351562 44.546875 L 33.023438 44.546875 L 33.015625 42.113281 L 33.003906 39.683594 L 32.679688 39.671875 L 32.351562 39.660156 Z M 32.351562 42.105469 "/>
<path style=" stroke:none;fill-rule:nonzero;fill:rgb(0%,0%,0%);fill-opacity:1;" d="M 36.175781 39.722656 C 35.621094 39.859375 35.101562 40.222656 34.78125 40.695312 C 34.5 41.113281 34.398438 41.4375 34.371094 42.011719 C 34.355469 42.386719 34.367188 42.527344 34.441406 42.796875 C 34.609375 43.484375 35.058594 44.046875 35.667969 44.339844 C 36.414062 44.703125 37.269531 44.710938 37.992188 44.363281 C 38.203125 44.257812 38.75 43.769531 38.75 43.683594 C 38.75 43.644531 38.339844 43.355469 38.285156 43.355469 C 38.261719 43.355469 38.195312 43.425781 38.128906 43.503906 C 37.875 43.816406 37.359375 44.03125 36.851562 44.03125 C 35.894531 44.03125 35.175781 43.398438 35.035156 42.429688 C 34.949219 41.804688 35.132812 41.199219 35.535156 40.773438 C 35.816406 40.476562 36.128906 40.320312 36.554688 40.257812 C 37.148438 40.164062 37.671875 40.335938 38.078125 40.753906 L 38.296875 40.976562 L 38.511719 40.832031 C 38.632812 40.75 38.738281 40.679688 38.746094 40.671875 C 38.777344 40.644531 38.578125 40.378906 38.398438 40.207031 C 38.171875 40 37.832031 39.816406 37.496094 39.726562 C 37.199219 39.648438 36.488281 39.648438 36.175781 39.722656 Z M 36.175781 39.722656 "/>
<path style=" stroke:none;fill-rule:nonzero;fill:rgb(0%,0%,0%);fill-opacity:1;" d="M 48.171875 39.710938 C 48.160156 39.738281 48.15625 41.238281 48.160156 43.039062 L 48.171875 46.316406 L 48.5 46.328125 L 48.820312 46.339844 L 48.820312 45.050781 C 48.820312 44.34375 48.832031 43.753906 48.84375 43.742188 C 48.863281 43.726562 48.929688 43.785156 48.996094 43.875 C 49.605469 44.640625 50.882812 44.84375 51.863281 44.324219 C 52.378906 44.054688 52.757812 43.605469 52.957031 43.039062 C 53.085938 42.679688 53.128906 41.996094 53.046875 41.597656 C 52.902344 40.84375 52.433594 40.230469 51.765625 39.921875 C 51.382812 39.742188 51.117188 39.6875 50.679688 39.6875 C 50.003906 39.6875 49.527344 39.871094 49.082031 40.308594 C 48.933594 40.457031 48.804688 40.578125 48.796875 40.578125 C 48.789062 40.578125 48.78125 40.371094 48.78125 40.121094 L 48.78125 39.664062 L 48.484375 39.664062 C 48.285156 39.664062 48.183594 39.679688 48.171875 39.710938 Z M 51.03125 40.242188 C 51.746094 40.410156 52.238281 40.929688 52.398438 41.667969 C 52.472656 42.023438 52.472656 42.179688 52.394531 42.554688 C 52.207031 43.460938 51.53125 44.027344 50.640625 44.03125 C 49.574219 44.035156 48.820312 43.230469 48.820312 42.089844 C 48.820312 41.539062 49.003906 41.070312 49.355469 40.714844 C 49.601562 40.46875 49.886719 40.3125 50.214844 40.242188 C 50.539062 40.167969 50.726562 40.167969 51.03125 40.242188 Z M 51.03125 40.242188 "/>
<path style=" stroke:none;fill-rule:nonzero;fill:rgb(0%,0%,0%);fill-opacity:1;" d="M 55.4375 39.710938 C 54.941406 39.832031 54.507812 40.019531 54.273438 40.210938 L 54.140625 40.328125 L 54.273438 40.542969 C 54.347656 40.660156 54.410156 40.761719 54.414062 40.769531 C 54.417969 40.777344 54.546875 40.707031 54.691406 40.621094 C 55.054688 40.402344 55.3125 40.3125 55.730469 40.257812 C 56 40.214844 56.144531 40.214844 56.367188 40.257812 C 57.066406 40.371094 57.382812 40.734375 57.425781 41.457031 L 57.445312 41.800781 L 56.324219 41.820312 C 55.449219 41.832031 55.160156 41.851562 55.019531 41.898438 C 54.558594 42.054688 54.292969 42.277344 54.121094 42.640625 C 53.992188 42.917969 53.980469 43.347656 54.085938 43.664062 C 54.230469 44.066406 54.667969 44.425781 55.179688 44.550781 C 55.460938 44.621094 56.085938 44.621094 56.367188 44.550781 C 56.710938 44.46875 57.058594 44.277344 57.25 44.070312 C 57.457031 43.847656 57.472656 43.867188 57.472656 44.273438 L 57.472656 44.546875 L 58.113281 44.546875 L 58.09375 42.828125 C 58.078125 41.386719 58.066406 41.074219 58.007812 40.875 C 57.84375 40.277344 57.417969 39.871094 56.796875 39.722656 C 56.511719 39.65625 55.695312 39.648438 55.4375 39.710938 Z M 57.433594 42.722656 C 57.433594 43.050781 57.417969 43.152344 57.351562 43.285156 C 57.230469 43.519531 56.910156 43.820312 56.671875 43.933594 C 56.0625 44.210938 55.253906 44.132812 54.898438 43.765625 C 54.714844 43.578125 54.667969 43.453125 54.667969 43.175781 C 54.667969 42.753906 54.90625 42.476562 55.367188 42.367188 C 55.449219 42.347656 55.949219 42.332031 56.476562 42.328125 L 57.433594 42.324219 Z M 57.433594 42.722656 "/>
<path style=" stroke:none;fill-rule:nonzero;fill:rgb(0%,0%,0%);fill-opacity:1;" d="M 61.183594 39.738281 C 60.527344 39.917969 59.972656 40.363281 59.683594 40.945312 C 59.117188 42.105469 59.445312 43.5 60.4375 44.175781 C 60.800781 44.417969 61.121094 44.535156 61.609375 44.597656 C 61.917969 44.636719 62.027344 44.632812 62.359375 44.574219 C 62.882812 44.480469 63.234375 44.300781 63.550781 43.972656 C 63.6875 43.832031 63.792969 43.703125 63.792969 43.683594 C 63.792969 43.648438 63.386719 43.355469 63.335938 43.355469 C 63.320312 43.355469 63.238281 43.4375 63.152344 43.53125 C 62.855469 43.875 62.324219 44.058594 61.757812 44.019531 C 61.035156 43.972656 60.441406 43.542969 60.199219 42.886719 C 60.085938 42.597656 60.050781 42.023438 60.117188 41.679688 C 60.273438 40.882812 60.882812 40.328125 61.699219 40.242188 C 62.238281 40.179688 62.75 40.363281 63.121094 40.742188 L 63.351562 40.972656 L 63.570312 40.824219 C 63.695312 40.746094 63.792969 40.652344 63.792969 40.621094 C 63.792969 40.59375 63.664062 40.4375 63.507812 40.285156 C 63.199219 39.972656 62.957031 39.835938 62.542969 39.726562 C 62.214844 39.640625 61.523438 39.648438 61.183594 39.738281 Z M 61.183594 39.738281 "/>
<path style=" stroke:none;fill-rule:nonzero;fill:rgb(0%,0%,0%);fill-opacity:1;" d="M 66.222656 39.738281 C 65.191406 40.042969 64.542969 40.964844 64.542969 42.121094 C 64.542969 42.773438 64.722656 43.296875 65.097656 43.75 C 65.304688 44.003906 65.710938 44.296875 66.03125 44.425781 C 66.285156 44.523438 66.816406 44.628906 67.085938 44.628906 C 67.394531 44.628906 67.984375 44.492188 68.269531 44.355469 C 68.515625 44.234375 68.925781 43.90625 68.925781 43.824219 C 68.925781 43.804688 68.851562 43.703125 68.765625 43.59375 L 68.601562 43.402344 L 68.421875 43.554688 C 67.839844 44.070312 66.914062 44.183594 66.179688 43.832031 C 65.722656 43.613281 65.339844 43.144531 65.253906 42.683594 C 65.230469 42.5625 65.199219 42.433594 65.191406 42.390625 C 65.171875 42.328125 65.285156 42.324219 67.207031 42.324219 L 69.242188 42.324219 L 69.242188 41.976562 C 69.242188 40.910156 68.539062 39.988281 67.523438 39.722656 C 67.207031 39.640625 66.53125 39.648438 66.222656 39.738281 Z M 67.242188 40.261719 C 67.925781 40.371094 68.523438 40.964844 68.601562 41.601562 L 68.625 41.808594 L 66.925781 41.808594 C 65.992188 41.808594 65.21875 41.796875 65.207031 41.785156 C 65.164062 41.746094 65.292969 41.285156 65.398438 41.085938 C 65.457031 40.984375 65.597656 40.804688 65.714844 40.691406 C 66.117188 40.3125 66.644531 40.160156 67.242188 40.261719 Z M 67.242188 40.261719 "/>
</g>
</svg>
